# xmcd CD database file
#
# Track frame offsets:
#	150
#	19243
#	39873
#
# Disc length: 752 seconds
#
# Revision: 0
# Processed by: cddbd v1.5.1PL2 Copyright (c) Steve Scherf et al.
# Submitted via: CDex 1.51
#
DISCID=1802ee03
DTITLE=グラスニットジャガー - 晩秋ノスタルジック
DYEAR=2003
DGENRE=JPop
TTITLE0=晩秋ノスタルジック
TTITLE1=今日が終わる
TTITLE2=吠えろ！雨男
EXTD=YEAR: 2003
EXTT0=
EXTT1=
EXTT2=
PLAYORDER=
